<?xml version="1.0" encoding="UTF-8"?>
<svg width="366px" height="60px" viewBox="0 0 366 60" version="1.1" xmlns="http://www.w3.org/2000/svg" xmlns:xlink="http://www.w3.org/1999/xlink">
    <title>logo_dark</title>
    <g id="Main" stroke="none" stroke-width="1" fill="none" fill-rule="evenodd">
        <g id="logo_dark" fill-rule="nonzero">
            <path d="M16.2357289,47.7513383 C20.4667593,47.7513383 23.8124925,46.7158795 26.2729287,44.644962 C28.7333648,42.5740444 29.9405882,39.9738924 29.8945987,36.8445059 C29.8945987,34.3594048 29.2967357,32.4725688 28.1010097,31.1839979 C26.9052838,29.895427 25.3301447,28.9174937 23.3755927,28.2501981 C21.4210406,27.5829024 19.2940281,26.9961424 16.994555,26.4899181 C14.695082,25.9376735 12.8440062,25.3163982 11.4413277,24.6260923 C10.0386491,23.9357865 9.33730985,22.9923685 9.33730985,21.7958384 C9.33730985,20.5993082 9.84319391,19.6213749 10.854962,18.8620385 C11.8667302,18.1027021 13.2924035,17.7230338 15.1319819,17.7230338 C17.0175498,17.7230338 18.5237046,18.1372174 19.6504464,18.9655844 C20.7771882,19.7939514 21.4555327,20.9444611 21.68548,22.4171136 L21.68548,22.4171136 L28.7218675,22.4171136 C28.3079623,19.0576252 26.9167811,16.4574731 24.5483239,14.6166575 C22.1798667,12.7758419 19.0870755,11.8554341 15.2699503,11.8554341 C11.1308988,11.8554341 7.91163657,12.8563776 5.61216355,14.8582646 C3.31269052,16.8601515 2.16295401,19.3567577 2.16295401,22.348083 C2.16295401,24.5110414 2.79530909,26.2253009 4.06001925,27.4908616 C5.32472942,28.7564223 6.91136581,29.7343556 8.81992842,30.4246615 C10.728491,31.1149673 12.648551,31.667212 14.5801083,32.0813955 C17.0635392,32.5876198 19.0065939,33.1513696 20.4092725,33.7726448 C21.811951,34.3939201 22.5132903,35.5789452 22.5132903,37.32772 C22.5132903,38.5242501 22.0074062,39.5827191 20.9956381,40.5031269 C19.98387,41.4235347 18.3742388,41.8837386 16.1667447,41.8837386 C13.9132612,41.8837386 12.0966775,41.3199888 10.7169937,40.1924892 C9.33730985,39.0649897 8.4635101,37.7188933 8.09559441,36.1542 L8.09559441,36.1542 L0.714286,36.1542 C1.12819114,39.6517497 2.73782226,42.4589935 5.54317936,44.5759314 C8.34853645,46.6928693 11.9127196,47.7513383 16.2357289,47.7513383 Z" id="Path" fill="#262626"></path>
            <path d="M40.781982,47.7513383 L40.781982,29.2511415 C40.781982,25.6615511 41.6672791,22.9003277 43.4378734,20.9674713 C45.2084676,19.034615 47.4504538,18.0681868 50.163832,18.0681868 C55.5905883,18.0681868 58.3039665,21.3816549 58.3039665,28.008591 L58.3039665,47.7513383 L65.5473065,47.7513383 L65.5473065,27.2492546 C65.5473065,22.1409913 64.3630779,18.2982887 61.9946207,15.7211469 C59.6261635,13.144005 56.3724091,11.8554341 52.2333577,11.8554341 C49.565969,11.8554341 47.2090091,12.4652043 45.1624781,13.6847446 C43.1159471,14.904285 41.8397396,16.5725241 40.781982,18.689462 L40.781982,11.9807744 L33.4696578,11.9807744 L33.4696578,47.7513383 L40.781982,47.7513383 Z" id="Path" fill="#262626"></path>
            <path d="M85.374668,11.8554341 C90.1575719,11.8554341 93.8597235,13.1094898 96.4811228,15.617601 C99.0276249,18.0540519 100.337254,21.3482102 100.410012,25.5000759 L100.413222,25.8686429 L100.413222,47.7513383 L93.1008974,47.7513383 L93.1008974,41.0553716 C91.7518732,43.3717312 90.4641683,44.9594346 89.2377827,45.8184819 C87.3982043,47.1070528 84.9837576,47.7513383 81.9944427,47.7513383 C79.0971067,47.7513383 76.7056547,47.2681242 74.8200868,46.301696 C72.934519,45.3352678 71.5318404,44.058202 70.6120512,42.4704986 C69.692262,40.8827951 69.2323674,39.1455254 69.2323674,37.2586894 C69.2323674,33.9452213 70.5200723,31.3220591 73.0954821,29.3892027 C75.5928491,27.5149177 79.128083,26.549377 83.7011838,26.4925805 L84.1329526,26.4899181 L93.1008974,26.4899181 L93.1008974,25.8686429 C93.1008974,23.1994603 92.3765634,21.1975733 90.9278954,19.862982 C89.4792274,18.5283907 87.6051569,17.861095 85.3056838,17.861095 C83.2821476,17.861095 81.5230507,18.3558142 80.0283933,19.3452526 C78.5987209,20.2916719 77.7055343,21.6696738 77.3488334,23.4792581 L77.3035177,23.7286947 L69.9911935,23.7286947 C70.2211408,21.2435937 71.0604484,19.1151506 72.5091165,17.3433656 C73.9577845,15.5715806 75.7973629,14.2139791 78.0278517,13.2705611 C80.2583406,12.3271431 82.7072793,11.8554341 85.374668,11.8554341 Z M93.0319132,31.4601203 L84.8917787,31.4601203 L84.5733064,31.4622035 C81.8431475,31.4983128 79.8912765,32.0038426 78.7176936,32.9787931 C77.4989729,33.9912417 76.8896126,35.2568024 76.8896126,36.7754753 C76.8896126,38.3401686 77.4759782,39.571214 78.6487094,40.4686116 C79.8214407,41.3660092 81.4195744,41.814708 83.4431107,41.814708 C85.4206575,41.814708 87.0877754,41.342999 88.4444645,40.399581 C89.8011536,39.456163 90.8589112,38.2021074 91.6177373,36.6374141 C92.3223615,35.1844847 92.7791472,33.5926723 92.9880942,31.8619769 L93.0319132,31.4601203 Z" id="Shape" fill="#262626"></path>
            <path d="M124.571802,11.8554341 C127.883043,11.8554341 130.803373,12.6377808 133.332794,14.202474 C135.862214,15.7671673 137.851258,17.9071154 139.299926,20.6223184 C140.748594,23.3375214 141.472928,26.4208876 141.472928,29.8724168 C141.472928,33.323946 140.748594,36.3958071 139.299926,39.0879999 C137.851258,41.7801927 135.862214,43.8971306 133.332794,45.4388137 C130.803373,46.9804968 127.860048,47.7513383 124.502817,47.7513383 C121.835429,47.7513383 119.478469,47.2221038 117.431938,46.1636348 C115.493119,45.1608748 113.936102,43.7657303 112.760886,41.9782015 L112.568552,41.6766468 L112.568552,59.1328591 L105.256228,59.1328591 L105.256228,11.9807744 L112.568552,11.9807744 L112.568552,17.9991562 C113.672299,16.3884425 115.189952,14.9618105 117.121509,13.7192599 C119.053066,12.4767094 121.536497,11.8554341 124.571802,11.8554341 Z M123.261102,18.2062479 C120.133819,18.2062479 117.569906,19.2877271 115.569365,21.4506854 C113.568823,23.6136438 112.568552,26.3978774 112.568552,29.8033862 C112.568552,33.2549155 113.568823,36.0506542 115.569365,38.1906023 C117.569906,40.3305504 120.133819,41.4005245 123.261102,41.4005245 C126.388385,41.4005245 128.963795,40.3305504 130.987331,38.1906023 C133.010868,36.0506542 134.022636,33.2549155 134.022636,29.8033862 C134.022636,27.5483871 133.562741,25.5465001 132.642952,23.7977253 C131.723163,22.0489505 130.458453,20.6798439 128.848821,19.6904055 C127.23919,18.7009671 125.376617,18.2062479 123.261102,18.2062479 Z" id="Shape" fill="#262626"></path>
            <path d="M164.424155,11.8554341 C167.735396,11.8554341 170.655727,12.6377808 173.185147,14.202474 C175.714568,15.7671673 177.703612,17.9071154 179.15228,20.6223184 C180.600948,23.3375214 181.325282,26.4208876 181.325282,29.8724168 C181.325282,33.323946 180.600948,36.3958071 179.15228,39.0879999 C177.703612,41.7801927 175.714568,43.8971306 173.185147,45.4388137 C170.655727,46.9804968 167.712401,47.7513383 164.355171,47.7513383 C161.687782,47.7513383 159.330822,47.2221038 157.284291,46.1636348 C155.345472,45.1608748 153.788455,43.7657303 152.61324,41.9782015 L152.420906,41.6766468 L152.420906,59.1328591 L145.108582,59.1328591 L145.108582,11.9807744 L152.420906,11.9807744 L152.420906,17.9991562 C153.524653,16.3884425 155.042305,14.9618105 156.973862,13.7192599 C158.90542,12.4767094 161.388851,11.8554341 164.424155,11.8554341 Z M163.113455,18.2062479 C159.986172,18.2062479 157.42226,19.2877271 155.421718,21.4506854 C153.421177,23.6136438 152.420906,26.3978774 152.420906,29.8033862 C152.420906,33.2549155 153.421177,36.0506542 155.421718,38.1906023 C157.42226,40.3305504 159.986172,41.4005245 163.113455,41.4005245 C166.240739,41.4005245 168.816149,40.3305504 170.839685,38.1906023 C172.863221,36.0506542 173.874989,33.2549155 173.874989,29.8033862 C173.874989,27.5483871 173.415095,25.5465001 172.495305,23.7977253 C171.575516,22.0489505 170.310806,20.6798439 168.701175,19.6904055 C167.091544,18.7009671 165.228971,18.2062479 163.113455,18.2062479 Z" id="Shape" fill="#262626"></path>
            <polygon id="Path" fill="#262626" points="197.29042 59.1328591 217.911104 11.9807744 210.184875 11.9807744 199.184729 38.0180258 188.730792 11.9807744 180.79761 11.9807744 194.286852 44.0927173 195.376596 46.4692877 196.287393 44.0927173 189.564191 59.1328591"></polygon>
            <path d="M228.72941,47.7513383 L228.72941,29.2511415 C228.72941,25.6615511 229.545723,22.9003277 231.178349,20.9674713 C232.810974,19.034615 234.891998,18.0681868 237.421418,18.0681868 C242.526248,18.0681868 245.078663,21.3816549 245.078663,28.008591 L245.078663,47.7513383 L252.390987,47.7513383 L252.390987,29.2511415 C252.390987,25.6615511 253.2073,22.9003277 254.839926,20.9674713 C256.472552,19.034615 258.57657,18.0681868 261.151979,18.0681868 C266.21082,18.0681868 268.74024,21.3816549 268.74024,28.008591 L268.74024,47.7513383 L276.052565,47.7513383 L276.052565,27.2492546 C276.052565,22.1409913 274.833844,18.2982887 272.396403,15.7211469 C269.958961,13.144005 266.601731,11.8554341 262.324711,11.8554341 C259.887269,11.8554341 257.622288,12.430689 255.529768,13.5811988 C253.437247,14.7317085 251.77013,16.2964018 250.528414,18.2752785 C248.412899,13.9953823 244.641763,11.8554341 239.215007,11.8554341 C236.823555,11.8554341 234.719537,12.3616584 232.902953,13.374107 C231.08637,14.3865556 229.626204,15.7671673 228.522457,17.5159421 L228.72941,17.5159421 L228.72941,11.9807744 L221.417086,11.9807744 L221.417086,47.7513383 L228.72941,47.7513383 Z" id="Path" fill="#262626"></path>
            <path d="M296.995792,11.8554341 C300.261044,11.8554341 303.192872,12.6032655 305.791276,14.0989281 C308.389681,15.5945908 310.459207,17.6885186 311.999854,20.3807114 C313.540501,23.0729042 314.310824,26.2137958 314.310824,29.8033862 C314.310824,33.3929766 313.540501,36.5338682 311.999854,39.2260611 C310.459207,41.9182539 308.378184,44.0121816 305.756784,45.5078443 C303.135385,47.003507 300.19206,47.7513383 296.926808,47.7513383 C293.661556,47.7513383 290.729728,47.003507 288.131324,45.5078443 C285.532919,44.0121816 283.474891,41.9182539 281.957239,39.2260611 C280.439586,36.5338682 279.68076,33.3929766 279.68076,29.8033862 C279.68076,26.2137958 280.451084,23.0729042 281.991731,20.3807114 C283.532378,17.6885186 285.613401,15.5945908 288.2348,14.0989281 C290.856199,12.6032655 293.77653,11.8554341 296.995792,11.8554341 Z M296.995792,18.1372174 C295.248193,18.1372174 293.627064,18.5744111 292.132407,19.4487985 C290.637749,20.3231859 289.430526,21.6232619 288.510737,23.3490265 C287.590947,25.0747911 287.131053,27.2262444 287.131053,29.8033862 C287.131053,32.3805281 287.590947,34.5319813 288.510737,36.2577459 C289.430526,37.9835105 290.626252,39.2835865 292.097915,40.157974 C293.569577,41.0323614 295.179208,41.4695551 296.926808,41.4695551 C298.674407,41.4695551 300.295536,41.0323614 301.790193,40.157974 C303.284851,39.2835865 304.492074,37.9835105 305.411863,36.2577459 C306.331653,34.5319813 306.791547,32.3805281 306.791547,29.8033862 C306.791547,27.2262444 306.34315,25.0747911 305.446356,23.3490265 C304.549561,21.6232619 303.353835,20.3231859 301.859178,19.4487985 C300.36452,18.5744111 298.743392,18.1372174 296.995792,18.1372174 Z" id="Shape" fill="#262626"></path>
            <path d="M325.214055,0.549602543 L325.214055,17.9991562 C326.317802,16.3884425 327.835454,14.9618105 329.767012,13.7192599 C331.698569,12.4767094 334.182,11.8554341 337.217304,11.8554341 C340.528545,11.8554341 343.448876,12.6377808 345.978296,14.202474 C348.507717,15.7671673 350.496761,17.9071154 351.945429,20.6223184 C353.394097,23.3375214 354.118431,26.4208876 354.118431,29.8724168 C354.118431,33.323946 353.394097,36.3958071 351.945429,39.0879999 C350.496761,41.7801927 348.507717,43.8971306 345.978296,45.4388137 C343.448876,46.9804968 340.505551,47.7513383 337.14832,47.7513383 C334.480931,47.7513383 332.123971,47.2221038 330.07744,46.1636348 C328.138622,45.1608748 326.581605,43.7657303 325.406389,41.9782015 L325.214055,41.6766468 L325.214055,47.8696163 L317.901731,47.8696163 L317.901731,0.549602543 L325.214055,0.549602543 Z M335.906605,18.2062479 C332.779321,18.2062479 330.215409,19.2877271 328.214867,21.4506854 C326.214326,23.6136438 325.214055,26.3978774 325.214055,29.8033862 C325.214055,33.2549155 326.214326,36.0506542 328.214867,38.1906023 C330.215409,40.3305504 332.779321,41.4005245 335.906605,41.4005245 C339.033888,41.4005245 341.609298,40.3305504 343.632834,38.1906023 C345.65637,36.0506542 346.668138,33.2549155 346.668138,29.8033862 C346.668138,27.5483871 346.208244,25.5465001 345.288455,23.7977253 C344.368665,22.0489505 343.103955,20.6798439 341.494324,19.6904055 C339.884693,18.7009671 338.02212,18.2062479 335.906605,18.2062479 Z" id="Shape" fill="#262626"></path>
            <ellipse id="Oval" fill="#FF472C" cx="359.84268" cy="42.2679822" rx="5.39591911" ry="5.3977202"></ellipse>
        </g>
    </g>
</svg>